# xmcd
#
# Track frame offsets:
#	150
#	16525
#	31107
#	50902
#	67147
#	86272
#	98955
#	114442
#	130535
#	149017
#	167000
#	187305
#	207302
#	225425
#	239877
#	257082
#	273885
#	291102
#	313302
#
# Disc length: 4423 seconds
#
# Revision: 0
# Processed by: cddbd v1.5.2PL0 Copyright (c) Steve Scherf et al.
# Submitted via: EasyCDDAExtractor 10.0.3.1
#
DISCID=19114513
DTITLE=Various Artist - SAMPLER
DYEAR=1900
DGENRE=
TTITLE0=RENATA DĄBKOWSKA - Już Nie Pozwolę Ci
TTITLE1=EMMIE - More Than This
TTITLE2=MYLENE FARMER - L'ame Stram Gram
TTITLE3=THE CARDIGANS - Erase Rewind
TTITLE4=ICH TROJE - A Wszystko To...
TTITLE5=LAMB - B Line
TTITLE6=ENRIQUE IGLESIAS - Bailamos
TTITLE7=ZUCCHERO - If Not Tonight
TTITLE8=TEXAS - In Our Lifetime
TTITLE9=MANAU - Mais Qui Est La Belette?
TTITLE10=EMINEM - My Name Is
TTITLE11=MARYLA RODOWICZ - Co Się Stało Z Mamą
TTITLE12=SHANIA TWAIN - That Don't Impress Me Much
TTITLE13=THE BRIAN SETZER ORCHESTRA - The Dirty Boogie
TTITLE14=HONEYZ - Love Of A Lifetime
TTITLE15=VOYTEK - Jeden Dzień Jedna Noc
TTITLE16=STING - Another Pyramid
TTITLE17=98 DEGREES - Because Of You
TTITLE18=ANDREA BOCELLI - Canto Della Terra
EXTD=
EXTT0=
EXTT1=
EXTT2=
EXTT3=
EXTT4=
EXTT5=
EXTT6=
EXTT7=
EXTT8=
EXTT9=
EXTT10=
EXTT11=
EXTT12=
EXTT13=
EXTT14=
EXTT15=
EXTT16=
EXTT17=
EXTT18=
PLAYORDER=
